# Blender v2.81 (sub 16) OBJ File: 'rock.blend'
# www.blender.org
mtllib rock_01.mtl
o Cube
v -1.020875 -0.439908 -0.290692
v 0.152112 -0.045700 -0.514958
v -0.489319 -0.372864 -0.791643
v 0.435691 -0.066658 -0.407510
v -0.899696 1.125391 2.201688
v 0.429740 -0.149982 1.261969
v -1.409197 1.132984 -0.570425
v -1.512028 0.831154 -0.502449
v -1.173622 0.030329 -0.800536
v 0.624341 1.321457 0.840779
v 0.430822 1.425575 1.518916
v 0.662308 0.974418 1.968418
v 0.001748 -0.335057 1.475376
v 0.336207 -0.303049 1.252726
v -1.386859 1.416154 -0.004630
v -0.155807 1.204877 -0.282648
v 0.791981 -0.282548 0.617462
v -0.556549 1.180705 -0.067083
v -0.413491 1.394996 0.197353
v 0.461215 1.382368 0.206539
v -0.974775 1.598422 0.365297
v -0.322634 1.536790 0.409819
v -0.213450 1.457694 0.824434
v -0.779824 1.713234 0.667997
v -1.463718 1.236444 0.715655
v -0.810171 1.799247 1.372714
v 0.230815 1.502490 1.521730
v -1.065791 1.749641 1.662288
v -0.092343 1.369921 1.921073
v -0.616107 1.391362 2.181903
v -1.026537 1.417308 1.966577
v 0.402439 1.129126 2.223004
v 0.548576 -0.020727 1.811815
v 0.661311 0.374320 1.833503
v 0.553513 0.298583 2.295919
v 0.664207 0.577179 2.134107
v 0.334571 0.777009 2.449587
v 0.335060 0.511884 2.486173
v 0.298678 -0.200872 1.567887
v 0.382523 0.020466 2.215203
v 0.069937 0.562569 2.502479
v 0.161388 -0.082961 2.058253
v -0.190128 1.176292 2.498734
v -0.149482 -0.231348 1.731926
v -0.093274 0.372572 2.131261
v -0.251298 0.808728 2.503688
v -0.421390 1.177663 2.510859
v -0.307176 0.559578 1.961555
v -0.620110 1.111656 2.415794
v -0.618260 0.878955 2.208400
v -0.376229 -0.313182 1.520348
v -0.733373 0.670149 1.873112
v -0.521054 -0.208408 1.256912
v -0.806653 0.212869 1.516446
v -0.529162 -0.415102 0.816820
v -1.067822 0.904789 1.881770
v -1.240762 0.695949 1.600670
v -0.827285 0.150423 0.762221
v -1.018272 0.340393 0.909034
v -1.515342 0.909482 1.314929
v -1.338467 1.465861 1.559410
v -1.114574 -0.304761 0.108814
v -1.604863 0.939363 0.871216
v -1.461766 0.304695 0.302800
v -1.501273 0.580246 0.602798
v -1.259772 0.168950 -0.167874
v -1.677914 1.062205 0.283186
v -1.142568 -0.083756 -0.393707
v -1.661460 0.747751 -0.043702
v -1.694535 1.195299 -0.126465
v -1.176901 0.276447 -0.470344
v -1.332861 0.506040 -0.714726
v -1.325644 0.433774 -0.534265
v 0.062333 -0.543069 -0.556068
v 0.230393 -0.301396 -0.489373
v -0.810604 -0.337694 -0.909609
v -0.267755 -0.439278 -0.570556
v -0.373870 -0.398734 -0.511991
v -0.608652 -0.451200 -0.509447
v 0.663862 -0.213839 -0.240179
v -0.807644 -0.585524 -0.013227
v 0.538327 -0.759559 -0.026321
v -0.381874 -0.591608 -0.284817
v 0.176476 -0.718670 -0.334988
v 0.790395 -0.389475 0.353814
v 0.399378 -0.806871 0.163918
v -0.399431 -0.806144 0.194520
v 0.087059 -0.936478 0.189089
v -0.783317 -0.449649 0.375045
v 0.251655 -0.611830 0.711989
v 0.464207 -0.369334 0.831416
v -0.396029 -0.675441 0.712123
v -0.240199 -0.692169 0.950302
v 0.276363 -0.503091 1.058916
v 0.489337 -0.348633 1.065798
v 0.495680 0.706951 -0.545612
v 0.420677 1.212626 -0.211462
v 0.629216 0.219217 -0.385302
v 0.696132 0.686979 0.086791
v 0.744255 -0.158830 0.137458
v 0.808574 0.214549 0.366173
v 0.788249 0.086321 0.537838
v 0.816283 1.179925 0.879015
v 0.954927 0.678406 0.762778
v 0.771868 0.777493 1.362394
v 0.835703 -0.165280 0.843364
v 0.716980 0.366772 1.229311
v 0.579961 0.135427 1.285195
v 0.685061 -0.209647 1.099828
v 0.599917 -0.105127 1.306972
v -1.174717 0.433718 -0.955555
v -1.041777 -0.324832 -0.846796
v -0.901891 -0.119853 -1.120657
v -1.089516 0.397733 -1.007132
v -1.184425 1.505244 0.148239
v -0.840922 0.151109 -1.171470
v -0.780953 0.737314 -0.795963
v -1.066617 1.158648 -0.601220
v -0.709012 1.179313 -0.388251
v -0.440913 -0.057507 -1.141162
v -0.228228 0.527807 -1.038211
v -0.016327 0.935682 -0.840332
v -0.219172 -0.280952 -0.913848
v 0.200580 0.321249 -0.689480
vt 0.632677 0.468354
vt 0.711584 0.493333
vt 0.653474 0.522546
vt 0.737889 0.524055
vt 0.731123 0.549707
vt 0.803214 0.548245
vt 0.750611 0.497841
vt 0.863926 0.510283
vt 0.864241 0.579573
vt 0.829675 0.529455
vt 0.721737 0.586586
vt 0.788258 0.571503
vt 0.641621 0.601631
vt 0.692959 0.651731
vt 0.666134 0.663363
vt 0.799771 0.632597
vt 0.830712 0.654112
vt 0.800925 0.709408
vt 0.733872 0.692447
vt 0.859296 0.696815
vt 0.690724 0.747054
vt 0.739640 0.750907
vt 0.874898 0.740854
vt 0.852212 0.741393
vt 0.793878 0.749916
vt 0.866959 0.658062
vt 0.682766 0.774051
vt 0.586101 0.769707
vt 0.645917 0.736062
vt 0.618597 0.607058
vt 0.600123 0.823934
vt 0.551208 0.826979
vt 0.527342 0.797669
vt 0.487763 0.820438
vt 0.464760 0.777513
vt 0.395722 0.873071
vt 0.407758 0.826266
vt 0.544577 0.860810
vt 0.367872 0.823957
vt 0.625836 0.861520
vt 0.568716 0.911655
vt 0.455079 0.861553
vt 0.421395 0.902716
vt 0.493023 0.901087
vt 0.617936 0.920930
vt 0.604273 0.953009
vt 0.501432 0.949471
vt 0.406059 0.935047
vt 0.556473 0.973116
vt 0.445565 0.997403
vt 0.388706 0.971228
vt 0.512922 0.991517
vt 0.480781 0.997977
vt 0.518190 0.002640
vt 0.553286 0.029936
vt 0.526037 0.048543
vt 0.462210 0.010343
vt 0.482957 0.077492
vt 0.429273 0.062553
vt 0.607792 0.006088
vt 0.610311 0.102499
vt 0.377010 0.032472
vt 0.376208 0.087123
vt 0.548642 0.086100
vt 0.394110 0.122624
vt 0.543808 0.119940
vt 0.471599 0.133171
vt 0.500327 0.122350
vt 0.412704 0.181307
vt 0.549316 0.162400
vt 0.524094 0.191972
vt 0.444833 0.166622
vt 0.591304 0.155339
vt 0.450354 0.205371
vt 0.575245 0.224764
vt 0.620918 0.245237
vt 0.478934 0.228458
vt 0.416231 0.243110
vt 0.568439 0.279629
vt 0.375000 0.192693
vt 0.377556 0.146687
vt 0.375000 0.117188
vt 0.286490 0.526085
vt 0.242858 0.534773
vt 0.223758 0.510062
vt 0.188627 0.565660
vt 0.172102 0.508676
vt 0.221495 0.554464
vt 0.149224 0.629216
vt 0.139428 0.519588
vt 0.393792 0.526689
vt 0.330912 0.595741
vt 0.131944 0.602253
vt 0.207772 0.597097
vt 0.208062 0.652168
vt 0.293894 0.575764
vt 0.271408 0.641735
vt 0.398045 0.606500
vt 0.309456 0.634423
vt 0.410638 0.638939
vt 0.292710 0.699389
vt 0.349723 0.704965
vt 0.199888 0.695303
vt 0.139459 0.667617
vt 0.215720 0.724351
vt 0.153343 0.718960
vt 0.292837 0.742694
vt 0.349357 0.743674
vt 0.247040 0.751939
vt 0.306159 0.769644
vt 0.165870 0.750322
vt 0.541807 0.545952
vt 0.422556 0.565857
vt 0.466345 0.502006
vt 0.557480 0.612737
vt 0.483773 0.588531
vt 0.468469 0.611592
vt 0.588001 0.670870
vt 0.436647 0.655810
vt 0.413831 0.705207
vt 0.489410 0.696666
vt 0.435340 0.725887
vt 0.543457 0.738816
vt 0.380618 0.774395
vt 0.484124 0.291596
vt 0.381556 0.276297
vt 0.538502 0.248634
vt 0.422951 0.314670
vt 0.390391 0.319974
vt 0.484619 0.309794
vt 0.622784 0.310831
vt 0.601804 0.359304
vt 0.578148 0.315479
vt 0.527887 0.347844
vt 0.434129 0.363078
vt 0.386239 0.388357
vt 0.499353 0.397610
vt 0.456220 0.331533
vt 0.546930 0.420165
vt 0.620396 0.408152
vt 0.622490 0.462698
vt 0.463643 0.446920
vt 0.405307 0.446412
vt 0.396217 0.475852
vt 0.534370 0.472001
vt 0.631172 0.374485
vt 0.373625 0.361940
vt 0.367584 0.383209
vt 0.841608 0.504115
vt 0.607736 0.998927
vt 0.640386 0.827018
vt 0.373214 0.914490
vt 0.363769 0.850231
vt 0.338670 0.787129
vt 0.570045 0.000931
vt 0.389751 0.005056
vt 0.494408 0.263642
vt 0.625000 0.120312
vt 0.298571 0.480763
vt 0.315991 0.485718
vt 0.199601 0.751168
vt 0.125000 0.641010
vt 0.531211 0.675578
vt 0.362350 0.403976
vt 0.357493 0.444348
vn 0.0344 0.9248 -0.3789
vn -0.2396 0.8517 -0.4660
vn 0.0703 0.9060 -0.4173
vn 0.1156 0.7679 -0.6301
vn -0.4963 0.8533 0.1599
vn 0.2230 0.9667 0.1257
vn 0.1137 0.9025 -0.4155
vn -0.5212 0.8415 0.1421
vn 0.3938 0.9164 0.0711
vn -0.5685 0.8209 0.0548
vn 0.1593 0.9858 0.0537
vn 0.3581 0.9328 -0.0410
vn 0.2983 0.9213 -0.2493
vn -0.3271 0.9362 -0.1284
vn 0.2827 0.8183 0.5004
vn -0.3358 0.6142 0.7141
vn 0.1686 0.8866 0.4308
vn 0.2326 0.9096 0.3443
vn -0.5556 0.3616 0.7487
vn 0.0328 0.8469 0.5307
vn -0.5015 0.5592 0.6601
vn -0.7750 0.1565 0.6123
vn 0.7452 0.2597 0.6142
vn 0.5873 0.8082 0.0435
vn 0.7063 0.0980 0.7011
vn 0.7430 -0.5622 0.3632
vn 0.3102 -0.4359 0.8449
vn 0.3263 -0.9066 0.2677
vn -0.0391 -0.4854 0.8734
vn 0.3030 -0.8954 0.3264
vn 0.0125 0.0114 0.9999
vn 0.0301 -0.9204 0.3898
vn -0.8316 -0.5027 0.2359
vn -0.3719 -0.1891 0.9088
vn -0.5768 -0.3317 0.7465
vn -0.5877 -0.5409 0.6017
vn -0.7631 -0.6231 0.1717
vn -0.3046 -0.5550 0.7741
vn -0.4023 -0.5989 0.6924
vn -0.6717 -0.7366 0.0794
vn -0.7293 -0.6749 0.1124
vn -0.8468 -0.1094 0.5205
vn -0.7922 -0.3708 0.4847
vn -0.7729 -0.1793 0.6087
vn -0.7848 -0.0227 0.6194
vn -0.6719 -0.4357 0.5989
vn -0.9550 0.2126 0.2070
vn -0.5786 -0.5276 0.6220
vn -0.5418 -0.6534 0.5288
vn -0.8788 -0.4528 -0.1502
vn -0.9484 -0.3128 0.0525
vn -0.9553 -0.2694 0.1217
vn -0.8244 -0.5290 -0.2012
vn -0.8360 0.5070 0.2098
vn -0.7950 -0.4692 -0.3846
vn -0.9974 -0.0705 0.0176
vn -0.6116 0.7805 0.1295
vn -0.7422 -0.5409 0.3958
vn -0.4298 0.8141 -0.3905
vn -0.9428 -0.3317 -0.0332
vn -0.6488 -0.7540 0.1029
vn -0.3005 -0.9537 0.0147
vn -0.0063 -0.9629 -0.2699
vn -0.3323 -0.9419 0.0500
vn -0.1249 -0.9564 -0.2640
vn 0.5895 -0.4087 -0.6967
vn -0.3929 -0.9033 -0.1722
vn 0.1618 -0.7551 -0.6354
vn -0.5458 -0.6292 -0.5534
vn -0.2687 -0.8755 -0.4017
vn -0.2373 -0.8834 -0.4041
vn 0.1934 -0.9172 -0.3482
vn 0.6325 -0.7211 0.2826
vn 0.3864 -0.9208 0.0532
vn 0.5262 -0.7464 0.4074
vn 0.3787 -0.8350 0.3992
vn 0.5123 -0.6965 0.5024
vn -0.6159 -0.7629 0.1967
vn 0.3396 -0.8433 0.4166
vn -0.7086 -0.5434 0.4501
vn 0.6988 -0.6953 0.1682
vn 0.2807 -0.9214 0.2688
vn 0.5869 -0.8096 0.0086
vn 0.2101 -0.8507 0.4818
vn 0.4761 -0.6812 0.5561
vn -0.7288 -0.6145 0.3021
vn 0.9820 0.0449 -0.1836
vn 0.9778 0.0081 -0.2093
vn 0.8192 0.4993 -0.2822
vn 0.8937 0.3200 -0.3146
vn 0.9460 0.0345 -0.3224
vn 0.9999 0.0081 -0.0093
vn 0.9455 0.2022 0.2552
vn 0.9840 -0.0280 -0.1759
vn 0.9462 -0.1045 0.3061
vn 0.6419 -0.7243 0.2517
vn 0.9852 0.0757 0.1535
vn 0.5338 -0.8106 0.2408
vn 0.9375 0.1077 0.3310
vn 0.9922 0.0901 0.0858
vn 0.9854 0.0696 0.1555
vn 0.9829 -0.1569 0.0964
vn 0.3135 -0.6180 0.7210
vn 0.6017 0.7948 -0.0784
vn 0.7593 0.6114 0.2227
vn -0.7930 -0.2204 -0.5679
vn -0.7496 0.1083 -0.6530
vn -0.2179 -0.7247 -0.6537
vn -0.5179 -0.0001 -0.8554
vn 0.1798 0.9033 -0.3895
vn 0.0289 0.4355 -0.8997
vn 0.0602 -0.6819 -0.7290
vn -0.1036 0.4771 -0.8727
vn -0.1410 0.3350 -0.9316
vn -0.1796 0.5034 -0.8452
vn 0.0405 0.9038 -0.4261
vn 0.7797 -0.3500 -0.5193
vn 0.2891 -0.4420 -0.8491
vn 0.5558 -0.1183 -0.8229
vn 0.3976 0.8971 -0.1926
vn 0.0052 -0.8047 -0.5937
vn -0.3127 0.8136 -0.4901
vn -0.0732 0.9008 -0.4281
vn 0.2221 0.7997 -0.5578
vn -0.7812 0.6193 -0.0792
vn 0.4303 0.8981 -0.0911
vn 0.1614 0.9729 -0.1654
vn -0.5702 0.7985 -0.1932
vn 0.2116 0.9150 0.3436
vn 0.2137 0.8809 0.4224
vn -0.6834 0.4475 0.5769
vn 0.3371 0.8628 0.3768
vn -0.3390 0.6063 0.7193
vn 0.6895 0.6572 0.3045
vn 0.2080 0.9163 0.3423
vn 0.7494 0.2500 0.6130
vn 0.9443 -0.2791 0.1744
vn 0.9456 -0.2737 0.1756
vn 0.5267 -0.8458 0.0850
vn 0.7213 0.1105 0.6837
vn 0.8159 -0.5145 0.2640
vn 0.3921 -0.8848 0.2518
vn 0.1934 0.1345 0.9719
vn 0.1835 -0.9196 0.3475
vn -0.2807 -0.5708 0.7716
vn 0.0680 0.0349 0.9971
vn -0.4217 -0.5538 0.7180
vn -0.5518 -0.4236 0.7183
vn -0.7443 -0.3188 0.5869
vn -0.0098 -0.9291 0.3698
vn 0.0524 0.0047 0.9986
vn -0.7568 -0.5609 0.3358
vn -0.4767 -0.7791 0.4072
vn -0.3152 -0.7532 0.5773
vn -0.5162 -0.5721 0.6373
vn -0.4608 -0.3711 0.8062
vn 0.4078 0.4372 0.8016
vn 0.0181 -0.8306 0.5566
vn 0.4467 -0.6879 0.5721
vn 0.6435 -0.4314 0.6323
vn -0.5073 -0.5615 0.6538
vn -0.8713 -0.4379 0.2217
vn -0.8048 -0.5893 0.0708
vn -0.4262 -0.5129 0.7452
vn -0.6943 -0.7060 0.1396
vn -0.5800 -0.7437 0.3324
vn -0.5624 -0.7792 0.2767
vn -0.9110 -0.3810 0.1581
vn -0.9000 0.4356 0.0152
vn -0.9245 -0.1000 -0.3679
vn -0.9321 -0.3477 -0.1010
vn -0.9424 -0.2636 0.2061
vn -0.8305 0.5189 0.2023
vn -0.9372 -0.1557 -0.3121
vn -0.7167 -0.6959 -0.0452
vn -0.8053 -0.5608 -0.1924
vn -0.9951 -0.0837 0.0525
vn -0.9356 -0.1299 -0.3284
vn -0.8993 -0.2720 -0.3424
vn -0.4586 -0.6751 0.5779
vn -0.7022 0.7066 -0.0879
vn -0.8208 0.1559 -0.5495
vn -0.9383 -0.3450 -0.0251
vn 0.2128 -0.9610 -0.1768
vn -0.0138 -0.9638 -0.2664
vn 0.5212 -0.5166 -0.6794
vn -0.2336 -0.8165 -0.5280
vn -0.2333 -0.8164 -0.5284
vn -0.2292 -0.9125 -0.3389
vn -0.2406 -0.8811 -0.4072
vn -0.5679 -0.7652 0.3033
vn -0.2488 -0.9387 0.2387
vn -0.3353 -0.9294 0.1541
vn -0.7200 -0.5423 0.4330
vn 0.3515 0.0139 -0.9361
vn 0.3763 -0.0060 -0.9265
vn 0.6297 -0.7212 0.2887
vn -0.7868 -0.5838 0.2004
vn -0.5753 -0.7602 0.3021
vn 0.9422 0.1615 -0.2935
vn 0.5217 -0.1468 -0.8404
vn 0.8916 0.3342 -0.3056
vn 0.2739 -0.9546 -0.1170
vn 0.9781 0.0003 -0.2083
vn 0.9721 -0.0245 -0.2334
vn 0.9951 -0.0319 0.0940
vn 0.9339 0.0109 -0.3574
vn 0.9668 -0.2459 -0.0692
vn 0.9467 -0.1605 -0.2792
vn 0.7128 -0.3006 0.6336
vn 0.7328 -0.2848 0.6180
vn 0.8629 -0.0087 0.5053
vn 0.9826 -0.1613 0.0925
vn 0.2881 -0.9561 0.0536
vn 0.8662 -0.4923 0.0860
vn 0.1022 -0.8706 0.4813
vn 0.2054 -0.9617 0.1817
vn 0.9617 -0.2731 -0.0237
vn 0.9028 -0.3202 -0.2870
vn -0.8458 -0.1934 -0.4973
vn -0.8462 -0.1288 -0.5170
vn -0.1064 0.8909 -0.4417
vn -0.7919 -0.2204 -0.5695
vn -0.5691 -0.0261 -0.8218
vn -0.1133 0.4499 -0.8859
vn -0.1857 0.6350 -0.7498
vn 0.0597 -0.6816 -0.7293
vn -0.0194 -0.1801 -0.9835
vn -0.1192 0.6002 -0.7910
vn 0.0804 -0.8739 -0.4795
vn 0.1384 0.1226 -0.9828
vn -0.0498 0.9986 0.0193
vn 0.6052 -0.0806 -0.7920
vn 0.6278 -0.1533 -0.7631
vn -0.0407 0.9988 -0.0286
vn 0.0983 0.9056 -0.4125
vn 0.7532 -0.0820 -0.6527
vn 0.5366 0.1260 -0.8344
vn 0.5810 -0.1458 -0.8008
vn 0.5889 0.5046 -0.6314
vn 0.3553 0.0152 -0.9346
vn -0.9494 -0.3028 -0.0833
vn 0.5255 -0.2322 -0.8185
vn 0.3665 -0.3914 -0.8441
usemtl Material
s off
f 97/1/1 16/2/1 20/3/1
f 16/2/2 19/4/2 22/5/2
f 16/2/3 22/5/3 20/3/3
f 21/6/4 22/5/4 18/7/4
f 15/8/5 25/9/5 115/10/5
f 22/5/6 23/11/6 20/3/6
f 21/6/7 24/12/7 22/5/7
f 115/10/8 25/9/8 21/6/8
f 22/5/9 24/12/9 23/11/9
f 21/6/10 25/9/10 24/12/10
f 20/3/11 23/11/11 10/13/11
f 10/13/12 27/14/12 11/15/12
f 23/11/13 26/16/13 27/14/13
f 24/12/14 28/17/14 26/16/14
f 27/14/15 30/18/15 29/19/15
f 28/17/16 31/20/16 30/18/16
f 29/19/17 32/21/17 27/14/17
f 29/19/18 43/22/18 32/21/18
f 31/20/19 5/23/19 49/24/19
f 30/18/20 47/25/20 43/22/20
f 30/18/21 49/24/21 47/25/21
f 61/26/22 5/23/22 31/20/22
f 37/27/23 36/28/23 12/29/23
f 10/13/24 11/15/24 103/30/24
f 37/31/25 38/32/25 35/33/25
f 35/33/26 40/34/26 33/35/26
f 38/32/27 40/34/27 35/33/27
f 40/34/28 13/36/28 39/37/28
f 38/32/29 41/38/29 40/34/29
f 39/37/30 13/36/30 14/39/30
f 43/40/31 46/41/31 41/38/31
f 42/42/32 44/43/32 13/36/32
f 46/41/33 45/44/33 42/42/33
f 47/45/34 49/46/34 46/41/34
f 44/43/35 48/47/35 51/48/35
f 49/46/36 50/49/36 46/41/36
f 51/48/37 54/50/37 53/51/37
f 48/47/38 52/52/38 54/53/38
f 52/54/39 56/55/39 57/56/39
f 54/57/40 59/58/40 58/59/40
f 54/57/41 57/56/41 59/58/41
f 5/60/42 61/61/42 56/55/42
f 55/62/43 58/59/43 89/63/43
f 57/56/44 56/55/44 60/64/44
f 56/55/45 61/61/45 60/64/45
f 89/63/46 58/59/46 62/65/46
f 60/64/47 61/61/47 63/66/47
f 58/59/48 64/67/48 62/65/48
f 58/59/49 65/68/49 64/67/49
f 62/65/50 64/67/50 68/69/50
f 65/68/51 63/66/51 67/70/51
f 65/68/52 67/70/52 64/67/52
f 64/67/53 69/71/53 66/72/53
f 63/66/54 25/73/54 67/70/54
f 66/72/55 69/71/55 71/74/55
f 67/70/56 70/75/56 69/71/56
f 25/73/57 15/76/57 70/75/57
f 71/74/58 73/77/58 9/78/58
f 70/75/59 15/76/59 7/79/59
f 68/69/60 112/80/60 1/81/60
f 81/82/61 62/65/61 1/81/61
f 74/83/62 77/84/62 3/85/62
f 3/85/63 79/86/63 76/87/63
f 77/84/64 78/88/64 3/85/64
f 76/87/65 81/89/65 112/90/65
f 80/91/66 82/92/66 74/83/66
f 81/89/67 1/93/67 112/90/67
f 78/88/68 83/94/68 79/86/68
f 77/84/69 83/94/69 78/88/69
f 83/94/70 87/95/70 81/89/70
f 84/96/71 87/95/71 83/94/71
f 82/92/72 88/97/72 84/96/72
f 85/98/73 86/99/73 82/92/73
f 82/92/74 86/99/74 88/97/74
f 17/100/75 90/101/75 86/99/75
f 86/99/76 90/101/76 88/97/76
f 17/100/77 91/102/77 90/101/77
f 87/95/78 92/103/78 89/104/78
f 90/101/79 93/105/79 88/97/79
f 89/104/80 92/103/80 55/106/80
f 91/102/81 94/107/81 90/101/81
f 90/101/82 94/107/82 93/105/82
f 95/108/83 94/107/83 91/102/83
f 94/107/84 13/109/84 93/105/84
f 95/108/85 14/110/85 94/107/85
f 93/105/86 53/111/86 55/106/86
f 99/112/87 100/113/87 98/114/87
f 98/114/88 100/113/88 80/91/88
f 20/3/89 103/30/89 97/1/89
f 103/30/90 104/115/90 97/1/90
f 99/112/91 101/116/91 100/113/91
f 102/117/92 17/100/92 85/98/92
f 103/30/93 105/118/93 104/115/93
f 102/117/94 106/119/94 17/100/94
f 104/115/95 105/118/95 106/119/95
f 106/119/96 109/120/96 17/100/96
f 12/29/97 105/118/97 103/30/97
f 109/120/98 95/108/98 17/100/98
f 108/121/99 110/122/99 109/120/99
f 108/121/100 33/35/100 110/122/100
f 12/29/101 36/28/101 105/118/101
f 105/118/102 36/28/102 34/123/102
f 109/120/103 6/124/103 95/108/103
f 10/13/104 103/30/104 20/3/104
f 11/15/105 12/29/105 103/30/105
f 9/78/106 111/125/106 112/126/106
f 8/127/107 7/79/107 111/125/107
f 112/126/108 113/128/108 76/129/108
f 111/125/109 114/130/109 113/128/109
f 115/131/110 119/132/110 118/133/110
f 111/125/111 118/133/111 117/134/111
f 76/129/112 120/135/112 123/136/112
f 114/130/113 121/137/113 116/138/113
f 118/133/114 122/139/114 117/134/114
f 117/134/115 122/139/115 121/137/115
f 122/139/116 16/140/116 97/141/116
f 123/136/117 124/142/117 2/143/117
f 124/142/118 4/144/118 2/143/118
f 96/145/119 98/114/119 124/142/119
f 18/146/120 119/132/120 115/131/120
f 3/147/121 123/136/121 74/148/121
f 16/2/122 18/7/122 19/4/122
f 118/149/123 15/8/123 115/10/123
f 115/10/124 21/6/124 18/7/124
f 18/7/125 22/5/125 19/4/125
f 23/11/126 24/12/126 26/16/126
f 10/13/127 23/11/127 27/14/127
f 24/12/128 25/9/128 28/17/128
f 26/16/129 28/17/129 27/14/129
f 27/14/130 28/17/130 30/18/130
f 28/17/131 61/26/131 31/20/131
f 27/14/132 32/21/132 11/15/132
f 30/18/133 31/20/133 49/24/133
f 11/15/134 32/21/134 12/29/134
f 29/19/135 30/18/135 43/22/135
f 32/21/136 37/27/136 12/29/136
f 34/123/137 35/33/137 33/35/137
f 34/123/138 36/28/138 35/33/138
f 33/35/139 39/37/139 6/124/139
f 36/28/140 37/31/140 35/33/140
f 6/124/141 39/37/141 14/39/141
f 33/35/142 40/34/142 39/37/142
f 37/31/143 43/40/143 38/32/143
f 40/34/144 42/42/144 13/36/144
f 40/34/145 41/38/145 42/42/145
f 38/32/146 43/40/146 41/38/146
f 41/38/147 46/41/147 42/42/147
f 42/42/148 45/44/148 44/43/148
f 45/44/149 48/47/149 44/43/149
f 13/36/150 44/43/150 51/48/150
f 43/40/151 47/45/151 46/41/151
f 45/44/152 46/41/152 48/47/152
f 48/47/153 46/41/153 50/49/153
f 48/47/154 50/49/154 52/52/154
f 49/46/155 5/150/155 50/49/155
f 51/48/156 48/47/156 54/50/156
f 32/151/157 43/40/157 37/31/157
f 93/152/158 13/36/158 51/48/158
f 94/153/159 14/39/159 13/36/159
f 95/154/160 6/124/160 14/39/160
f 56/55/161 50/155/161 5/60/161
f 55/62/162 53/156/162 58/59/162
f 53/156/163 54/57/163 58/59/163
f 54/57/164 52/54/164 57/56/164
f 59/58/165 57/56/165 60/64/165
f 59/58/166 60/64/166 65/68/166
f 58/59/167 59/58/167 65/68/167
f 65/68/168 60/64/168 63/66/168
f 63/66/169 61/61/169 25/73/169
f 68/69/170 64/67/170 66/72/170
f 1/81/171 62/65/171 68/69/171
f 64/67/172 67/70/172 69/71/172
f 67/70/173 25/73/173 70/75/173
f 68/69/174 66/72/174 71/74/174
f 71/74/175 69/71/175 73/77/175
f 73/77/176 69/71/176 72/157/176
f 68/69/177 71/74/177 9/78/177
f 69/71/178 70/75/178 8/127/178
f 72/157/179 69/71/179 8/127/179
f 52/54/180 50/155/180 56/55/180
f 61/61/181 28/158/181 25/73/181
f 8/127/182 70/75/182 7/79/182
f 68/69/183 9/78/183 112/80/183
f 3/85/184 78/88/184 79/86/184
f 76/87/185 79/86/185 81/89/185
f 74/83/186 82/92/186 84/96/186
f 74/83/187 84/96/187 77/84/187
f 77/84/188 84/96/188 83/94/188
f 79/86/189 83/94/189 81/89/189
f 84/96/190 88/97/190 87/95/190
f 81/89/191 87/95/191 89/104/191
f 87/95/192 88/97/192 92/103/192
f 92/103/193 88/97/193 93/105/193
f 92/103/194 93/105/194 55/106/194
f 2/159/195 75/160/195 74/83/195
f 4/144/196 74/83/196 75/160/196
f 85/98/197 17/100/197 86/99/197
f 93/105/198 51/161/198 53/111/198
f 62/162/199 81/89/199 89/104/199
f 96/145/200 99/112/200 98/114/200
f 4/144/201 80/91/201 74/83/201
f 97/1/202 104/115/202 96/145/202
f 96/145/203 104/115/203 99/112/203
f 80/91/204 100/113/204 85/98/204
f 100/113/205 101/116/205 85/98/205
f 101/116/206 102/117/206 85/98/206
f 99/112/207 104/115/207 101/116/207
f 101/116/208 104/115/208 102/117/208
f 104/115/209 106/119/209 102/117/209
f 106/119/210 105/118/210 107/163/210
f 106/119/211 107/163/211 108/121/211
f 106/119/212 108/121/212 109/120/212
f 105/118/213 34/123/213 107/163/213
f 17/100/214 95/108/214 91/102/214
f 107/163/215 34/123/215 108/121/215
f 109/120/216 110/122/216 6/124/216
f 110/122/217 33/35/217 6/124/217
f 108/121/218 34/123/218 33/35/218
f 80/91/219 85/98/219 82/92/219
f 9/78/220 72/157/220 111/125/220
f 72/157/221 8/127/221 111/125/221
f 7/79/222 15/76/222 118/133/222
f 112/126/223 111/125/223 113/128/223
f 113/128/224 114/130/224 116/138/224
f 111/125/225 7/79/225 118/133/225
f 114/130/226 111/125/226 117/134/226
f 76/129/227 113/128/227 120/135/227
f 113/128/228 116/138/228 120/135/228
f 114/130/229 117/134/229 121/137/229
f 3/147/230 76/129/230 123/136/230
f 120/135/231 116/138/231 121/137/231
f 119/132/232 18/146/232 16/140/232
f 120/135/233 121/137/233 124/142/233
f 120/135/234 124/142/234 123/136/234
f 118/133/235 119/132/235 16/140/235
f 122/139/236 118/133/236 16/140/236
f 74/164/237 123/136/237 2/143/237
f 121/137/238 122/139/238 96/145/238
f 124/142/239 121/137/239 96/145/239
f 122/139/240 97/141/240 96/145/240
f 75/165/241 2/143/241 4/144/241
f 9/78/242 73/77/242 72/157/242
f 124/142/243 98/114/243 80/91/243
f 124/142/244 80/91/244 4/144/244
