# Blender v2.81 (sub 16) OBJ File: 'rock.blend'
# www.blender.org
mtllib rock_02.mtl
o Cube
v -1.118838 -0.406651 -0.823813
v -1.114929 -0.589473 -0.188540
v -1.328191 -0.196118 -0.156412
v -1.206135 -0.368796 0.234626
v -1.880354 1.110150 0.798343
v 0.363183 1.798560 -0.348532
v -1.072811 -0.177683 0.466717
v -0.773748 -0.457935 0.541890
v 0.294840 -0.909004 0.473817
v -1.699927 1.728798 -1.124624
v 0.600012 -0.906934 0.314139
v 0.981732 -0.656721 0.041480
v -0.007202 2.318041 -1.312781
v 0.306971 1.952333 -1.248818
v -1.068600 1.923512 -1.178502
v -1.906482 1.883436 -0.535242
v -1.516660 2.179729 -0.618421
v 0.334525 2.193071 -0.942597
v -0.943223 2.295928 -0.549207
v -1.829399 1.960194 -0.216337
v -0.175630 2.434730 -1.016995
v -1.642150 1.942527 -0.120240
v -0.420757 2.386647 -0.487730
v -1.094725 2.376056 -0.339564
v -1.470057 1.981830 0.177573
v -1.906006 1.911076 0.276753
v -1.135342 2.079676 0.167907
v -0.687568 2.023313 -0.035860
v -1.592586 1.627574 0.328223
v -0.384454 1.626918 0.044508
v 0.056457 -0.087848 0.922267
v -0.002117 0.406676 0.778138
v -0.201212 0.981651 0.732867
v -0.616704 1.166611 0.815899
v -0.654620 0.343370 0.752035
v -0.866291 1.726201 0.427512
v -0.948770 0.049246 0.606574
v -1.223567 1.039254 0.999263
v -1.680809 1.286528 0.755707
v -1.569283 0.783532 0.996249
v -1.624928 0.596694 0.800423
v -2.107151 1.223686 0.624171
v -1.560683 0.030517 0.307138
v -2.079202 1.748369 0.407385
v -2.256534 1.128747 0.106133
v -1.804297 0.703559 0.221334
v -2.154759 1.827166 0.039757
v -1.704841 0.233013 0.061716
v -1.444013 0.187126 -0.469280
v -2.173668 0.742094 -0.350403
v -2.012300 1.480827 -0.260545
v -1.336061 0.004408 -0.845651
v -2.131521 0.790808 -0.619011
v -1.755987 0.516726 -0.881415
v -0.838458 -0.348783 -1.040308
v -0.224844 -0.532137 -0.708181
v 0.152821 -0.663107 -0.736586
v -0.364883 -0.523456 -0.526751
v 0.803620 -0.797098 -0.335446
v -0.735410 -0.595138 -0.450593
v -0.131746 -1.066783 -0.070573
v -0.416342 -0.812363 -0.226348
v 0.796317 -0.963253 0.005084
v -0.471484 -0.920366 0.111267
v 0.285644 -1.184893 0.212605
v -0.279526 -0.693892 0.862041
v 0.120980 -0.993741 0.504453
v 0.397767 1.186913 -1.211542
v 0.910628 0.794375 -0.727489
v 0.458876 1.796175 -1.091112
v 0.690933 0.367749 -0.671935
v 0.533869 1.228375 -0.879253
v 0.901926 0.343975 -0.470783
v 0.979892 -0.376262 -0.421511
v 0.618912 1.360419 -0.642098
v 0.934307 0.838477 -0.326841
v 0.728396 0.089699 -0.042845
v 0.767890 -0.392011 0.336223
v 1.006037 -0.017556 -0.278401
v 0.530999 0.199045 0.033133
v 0.471224 1.260954 0.067362
v -1.462888 0.492649 -1.203116
v -0.988141 0.044413 -1.336403
v -0.803757 1.021255 -1.114391
v -1.482732 1.038125 -1.166841
v -0.865602 0.616982 -1.233356
v 0.129416 0.618737 -1.491435
v -0.533379 -0.059336 -1.416574
v -0.572062 2.099220 -1.302009
v -0.268744 1.114913 -1.382704
v 0.293886 -0.169367 -0.855940
v 0.002177 1.700189 -1.472898
v 0.493265 0.246209 -1.046342
v 0.441357 0.895056 -1.247039
vt 0.762656 0.504590
vt 0.689776 0.571394
vt 0.716718 0.493051
vt 0.839046 0.503979
vt 0.861229 0.569057
vt 0.802611 0.555765
vt 0.740381 0.587276
vt 0.834056 0.601719
vt 0.683716 0.513296
vt 0.646201 0.585000
vt 0.750675 0.633595
vt 0.808629 0.638451
vt 0.874245 0.615702
vt 0.696054 0.630946
vt 0.845351 0.679668
vt 0.795951 0.689059
vt 0.753275 0.706349
vt 0.717291 0.706269
vt 0.678333 0.763918
vt 0.746160 0.744544
vt 0.809351 0.741265
vt 0.873228 0.683505
vt 0.626048 0.679319
vt 0.585779 0.738266
vt 0.642847 0.496130
vt 0.609523 0.548383
vt 0.547836 0.826853
vt 0.570340 0.856362
vt 0.501833 0.819009
vt 0.482086 0.891794
vt 0.450975 0.831191
vt 0.387019 0.895335
vt 0.374051 0.849617
vt 0.602423 0.873388
vt 0.543110 0.928807
vt 0.626059 0.934839
vt 0.578997 0.970390
vt 0.613632 0.992884
vt 0.542199 0.998491
vt 0.486728 0.008028
vt 0.430732 0.061921
vt 0.453926 0.003839
vt 0.578089 0.010518
vt 0.556688 0.038443
vt 0.544574 0.011378
vt 0.398709 0.018114
vt 0.386356 0.059834
vt 0.487798 0.079974
vt 0.619242 0.061533
vt 0.549528 0.108388
vt 0.500625 0.151240
vt 0.449495 0.110483
vt 0.619186 0.125432
vt 0.585349 0.174179
vt 0.478194 0.219428
vt 0.429780 0.165231
vt 0.416850 0.224555
vt 0.399259 0.111113
vt 0.509286 0.191224
vt 0.598475 0.288377
vt 0.519650 0.287590
vt 0.236264 0.534885
vt 0.174250 0.592309
vt 0.175529 0.507512
vt 0.213207 0.560144
vt 0.353644 0.601899
vt 0.242854 0.634417
vt 0.281792 0.529783
vt 0.137021 0.630472
vt 0.138015 0.543746
vt 0.200440 0.616369
vt 0.325756 0.700803
vt 0.260248 0.713965
vt 0.277490 0.667713
vt 0.196154 0.666166
vt 0.215365 0.751204
vt 0.159336 0.735124
vt 0.285895 0.731643
vt 0.247446 0.752562
vt 0.251661 0.493738
vt 0.125000 0.547497
vt 0.368735 0.440012
vt 0.424035 0.481692
vt 0.406742 0.596200
vt 0.490322 0.475318
vt 0.532360 0.478601
vt 0.509133 0.585685
vt 0.447645 0.539650
vt 0.551386 0.555299
vt 0.465479 0.593631
vt 0.574944 0.629153
vt 0.529174 0.655253
vt 0.452601 0.644789
vt 0.491337 0.729015
vt 0.466298 0.689872
vt 0.406277 0.729134
vt 0.343817 0.648386
vt 0.382314 0.650075
vt 0.377900 0.227432
vt 0.427934 0.313030
vt 0.381636 0.307959
vt 0.474629 0.278691
vt 0.479961 0.337745
vt 0.613691 0.344842
vt 0.520082 0.347415
vt 0.417154 0.352756
vt 0.514501 0.399345
vt 0.628311 0.396782
vt 0.588211 0.431775
vt 0.469642 0.432440
vt 0.640709 0.494543
vt 0.370918 0.361062
vt 0.657648 0.788835
vt 0.428085 0.968265
vt 0.514992 0.960471
vt 0.399837 0.993778
vt 0.496393 0.990922
vt 0.374612 0.949611
vt 0.439449 0.003030
vt 0.612013 0.190724
vt 0.375201 0.136545
vt 0.375000 0.096130
vt 0.375000 0.035693
vt 0.311505 0.479891
vt 0.125000 0.695077
vt 0.648209 0.435901
vt 0.365148 0.394405
vn -0.3936 0.8193 -0.4169
vn -0.6080 0.6893 -0.3939
vn -0.3971 0.8223 -0.4075
vn -0.1163 0.8647 -0.4886
vn -0.6103 0.7910 -0.0429
vn 0.4380 0.8930 -0.1029
vn -0.1284 0.8919 -0.4337
vn -0.1206 0.9077 0.4018
vn -0.4466 0.8884 -0.1059
vn -0.5385 0.8054 0.2478
vn -0.1722 0.9850 0.0097
vn -0.3521 0.9352 0.0385
vn -0.2340 0.8476 0.4763
vn -0.1675 0.9853 -0.0333
vn 0.4885 0.5162 0.7035
vn -0.1282 0.5218 0.8434
vn 0.1557 0.3405 0.9273
vn -0.1798 0.4370 0.8813
vn 0.2483 0.4319 0.8671
vn 0.2468 0.6235 0.7418
vn 0.8252 0.4056 -0.3931
vn 0.2980 0.7347 0.6094
vn 0.4284 0.7133 0.5546
vn -0.0648 0.2721 0.9601
vn -0.0460 0.0626 0.9970
vn 0.4417 -0.3279 0.8351
vn 0.1133 0.6001 0.7918
vn -0.1873 0.7864 0.5887
vn 0.2819 0.7208 0.6332
vn -0.2157 0.4531 0.8650
vn -0.3017 -0.6455 0.7016
vn -0.3193 0.5481 0.7731
vn -0.4682 -0.5995 0.6492
vn -0.4604 -0.5371 0.7068
vn -0.8035 -0.5780 0.1422
vn -0.9566 0.1533 0.2478
vn -0.8010 -0.3371 0.4948
vn -0.6802 -0.6156 0.3979
vn -0.8628 0.0782 -0.4995
vn -0.5661 -0.7974 -0.2092
vn -0.6414 -0.7436 -0.1889
vn -0.9294 -0.3570 -0.0933
vn -0.9012 0.3120 -0.3008
vn -0.6742 -0.7008 -0.2329
vn -0.7736 -0.6283 0.0831
vn -0.6062 -0.1428 -0.7824
vn -0.0742 -0.9247 -0.3733
vn 0.2290 -0.9477 0.2221
vn 0.1156 -0.8706 -0.4783
vn -0.2004 -0.9418 -0.2698
vn -0.7242 -0.4308 -0.5384
vn -0.0031 -0.7205 -0.6935
vn 0.3771 -0.6628 0.6469
vn -0.5838 -0.7239 0.3676
vn -0.3405 -0.8726 0.3503
vn 0.3689 -0.4662 0.8041
vn -0.3251 -0.8458 -0.4229
vn -0.8738 -0.4687 -0.1295
vn 0.3388 -0.5214 -0.7832
vn 0.7467 0.1891 -0.6378
vn 0.8352 -0.4678 -0.2891
vn 0.7606 0.5283 -0.3774
vn 0.8501 0.1615 -0.5012
vn 0.6076 -0.4021 -0.6849
vn 0.8777 0.4679 -0.1034
vn 0.9175 0.0546 -0.3939
vn 0.9973 -0.0497 -0.0535
vn 0.8595 0.5110 -0.0139
vn 0.6547 0.0125 0.7558
vn 0.5466 0.5451 0.6357
vn 0.6961 -0.4840 0.5303
vn 0.8462 -0.4858 -0.2189
vn -0.3796 -0.6444 -0.6638
vn -0.0637 0.0639 -0.9959
vn 0.0757 -0.0485 -0.9959
vn -0.1253 0.2016 -0.9714
vn -0.4690 0.3146 -0.8253
vn -0.3408 -0.0896 -0.9359
vn -0.2829 -0.0168 -0.9590
vn 0.5766 0.0286 -0.8165
vn 0.6934 -0.1617 -0.7022
vn -0.7384 0.0180 -0.6741
vn 0.0667 -0.8163 -0.5738
vn 0.7067 0.5239 -0.4755
vn -0.3211 0.8042 -0.5001
vn 0.3827 0.8872 0.2578
vn -0.1068 0.9006 -0.4214
vn 0.4743 0.7438 0.4710
vn -0.5527 0.8057 0.2131
vn 0.0398 0.9937 0.1052
vn 0.1354 0.7316 0.6682
vn 0.3270 0.8044 0.4960
vn -0.5361 0.7961 0.2808
vn 0.2814 0.5596 0.7796
vn 0.3622 0.7149 0.5981
vn 0.5820 0.5638 0.5860
vn -0.2852 0.7647 -0.5779
vn 0.6616 0.5347 0.5257
vn 0.5366 -0.2791 0.7963
vn 0.8192 0.2478 0.5172
vn 0.6175 0.2719 0.7381
vn 0.5601 0.6262 0.5423
vn -0.2907 0.0663 0.9545
vn -0.3147 -0.1489 0.9374
vn 0.2572 0.1491 0.9548
vn -0.0487 0.6538 0.7551
vn 0.2420 -0.1431 0.9597
vn 0.0174 -0.4572 0.8892
vn -0.5409 -0.2068 0.8153
vn 0.1526 -0.2177 0.9640
vn -0.2452 0.3208 0.9149
vn -0.7421 -0.3669 0.5609
vn 0.8165 0.0274 0.5767
vn -0.6258 -0.5094 0.5907
vn -0.0531 -0.5027 0.8628
vn -0.6735 -0.3324 0.6603
vn -0.3233 0.3760 0.8684
vn -0.9241 -0.3052 0.2299
vn -0.9102 -0.2920 0.2937
vn -0.7516 -0.6573 -0.0556
vn -0.6911 -0.6489 0.3182
vn -0.7679 -0.6363 -0.0740
vn -0.9592 0.1618 0.2318
vn -0.7856 -0.5161 -0.3413
vn -0.9165 -0.0312 -0.3988
vn -0.8764 -0.4649 -0.1253
vn -0.9870 -0.0236 -0.1591
vn -0.9757 0.2066 -0.0731
vn -0.8280 -0.4550 -0.3276
vn -0.6188 -0.1021 -0.7789
vn -0.9028 0.2145 -0.3727
vn -0.8753 -0.4796 0.0614
vn -0.5797 -0.4335 0.6900
vn 0.4333 -0.3268 -0.8399
vn -0.0946 -0.9244 -0.3696
vn 0.4374 -0.3524 -0.8273
vn -0.3046 -0.7513 -0.5855
vn -0.3509 -0.7421 -0.5711
vn 0.1027 -0.8552 -0.5081
vn -0.2762 -0.8824 -0.3810
vn -0.3564 -0.8714 -0.3370
vn 0.2094 -0.8806 -0.4252
vn -0.5187 -0.7861 -0.3362
vn -0.5586 -0.7307 0.3925
vn -0.3412 -0.9331 0.1138
vn 0.5035 -0.7352 0.4538
vn -0.3502 -0.8618 0.3669
vn 0.3936 -0.5382 0.7453
vn -0.4195 -0.8388 0.3470
vn 0.9260 -0.0184 -0.3770
vn 0.6913 0.0254 -0.7221
vn 0.9415 -0.0013 -0.3369
vn 0.9297 0.0760 -0.3603
vn 0.9496 0.3112 -0.0365
vn 0.8717 -0.4176 -0.2564
vn 0.9976 -0.0573 -0.0387
vn 0.7287 0.4530 -0.5136
vn 0.6655 0.0976 0.7400
vn 0.8992 0.3833 0.2112
vn 0.6652 -0.2471 0.7046
vn 0.8688 0.1948 0.4553
vn 0.7801 0.4733 0.4092
vn 0.4489 0.2063 0.8694
vn 0.6654 0.4945 0.5591
vn 0.7186 -0.1524 -0.6786
vn 0.4565 -0.1861 0.8700
vn -0.6334 -0.4937 -0.5959
vn -0.0945 0.0311 -0.9950
vn -0.2728 -0.6429 -0.7157
vn 0.0808 0.2700 -0.9595
vn -0.0900 0.1950 -0.9767
vn -0.2489 0.1375 -0.9587
vn -0.1969 -0.1269 -0.9722
vn 0.4359 -0.5081 -0.7429
vn -0.4575 0.0752 -0.8860
vn -0.2511 0.0106 -0.9679
vn 0.5043 0.1781 -0.8450
vn 0.6251 0.0868 -0.7757
vn 0.3827 -0.5302 -0.7566
vn 0.4450 0.2310 -0.8652
vn 0.7463 0.0562 -0.6632
vn -0.6342 -0.5572 -0.5361
vn -0.1143 0.2476 -0.9621
vn 0.4975 -0.3355 -0.8000
usemtl Material
s off
f 15/1/1 21/2/1 89/3/1
f 10/4/2 16/5/2 17/6/2
f 19/7/3 21/2/3 15/1/3
f 17/6/4 19/7/4 15/1/4
f 16/5/5 20/8/5 17/6/5
f 13/9/6 21/2/6 18/10/6
f 17/6/7 24/11/7 19/7/7
f 20/8/8 22/12/8 17/6/8
f 16/5/9 47/13/9 20/8/9
f 22/12/10 24/11/10 17/6/10
f 19/7/11 23/14/11 21/2/11
f 47/13/12 26/15/12 20/8/12
f 25/16/13 27/17/13 24/11/13
f 26/15/14 25/16/14 22/12/14
f 28/18/15 30/19/15 23/14/15
f 25/16/16 36/20/16 27/17/16
f 26/15/17 29/21/17 25/16/17
f 25/16/18 29/21/18 36/20/18
f 26/15/19 44/22/19 29/21/19
f 6/23/20 30/19/20 81/24/20
f 14/25/21 18/10/21 70/26/21
f 30/19/22 33/27/22 81/24/22
f 30/19/23 34/28/23 33/27/23
f 32/29/24 35/30/24 31/31/24
f 33/27/25 35/30/25 32/29/25
f 31/31/26 66/32/26 9/33/26
f 36/34/27 38/35/27 34/28/27
f 29/36/28 39/37/28 36/34/28
f 29/36/29 44/38/29 39/37/29
f 39/37/30 5/39/30 38/35/30
f 41/40/31 43/41/31 40/42/31
f 39/43/32 42/44/32 5/45/32
f 40/42/33 43/41/33 7/46/33
f 7/46/34 43/41/34 4/47/34
f 42/44/35 46/48/35 41/40/35
f 44/49/36 45/50/36 42/44/36
f 46/48/37 50/51/37 48/52/37
f 46/48/38 45/50/38 50/51/38
f 45/50/39 47/53/39 51/54/39
f 48/52/40 54/55/40 49/56/40
f 48/52/41 50/51/41 54/55/41
f 49/56/42 52/57/42 3/58/42
f 45/50/43 51/54/43 53/59/43
f 50/51/44 53/59/44 54/55/44
f 49/56/45 54/55/45 52/57/45
f 53/59/46 10/60/46 85/61/46
f 56/62/47 60/63/47 55/64/47
f 56/62/48 58/65/48 60/63/48
f 59/66/49 61/67/49 57/68/49
f 60/63/50 2/69/50 1/70/50
f 56/62/51 62/71/51 58/65/51
f 58/65/52 62/71/52 60/63/52
f 11/72/53 67/73/53 65/74/53
f 64/75/54 66/76/54 8/77/54
f 64/75/55 67/73/55 66/76/55
f 67/73/56 9/78/56 66/79/56
f 57/68/57 56/62/57 88/80/57
f 1/70/58 2/69/58 52/81/58
f 91/82/59 93/83/59 74/84/59
f 94/85/60 68/86/60 69/87/60
f 93/83/61 69/87/61 71/88/61
f 68/86/62 72/89/62 69/87/62
f 93/83/63 71/88/63 74/84/63
f 71/88/64 69/87/64 73/90/64
f 69/87/65 75/91/65 76/92/65
f 73/90/66 76/92/66 79/93/66
f 73/90/67 69/87/67 76/92/67
f 75/91/68 6/23/68 76/92/68
f 76/92/69 81/24/69 80/94/69
f 77/95/70 80/94/70 78/96/70
f 63/97/71 12/98/71 11/72/71
f 59/66/72 12/98/72 63/97/72
f 1/99/73 83/100/73 55/101/73
f 82/102/74 85/61/74 86/103/74
f 85/61/75 15/104/75 84/105/75
f 83/100/76 86/103/76 88/106/76
f 84/105/77 90/107/77 86/103/77
f 84/105/78 89/108/78 92/109/78
f 90/107/79 92/109/79 87/110/79
f 92/109/80 14/111/80 68/86/80
f 87/110/81 94/85/81 93/83/81
f 54/55/82 85/61/82 82/102/82
f 55/101/83 88/106/83 56/112/83
f 13/9/84 18/10/84 14/25/84
f 89/3/85 21/2/85 13/9/85
f 21/2/86 23/14/86 18/10/86
f 19/7/87 24/11/87 23/14/87
f 18/10/88 23/14/88 6/23/88
f 22/12/89 25/16/89 24/11/89
f 20/8/90 26/15/90 22/12/90
f 23/14/91 24/11/91 28/18/91
f 24/11/92 27/17/92 28/18/92
f 47/13/93 44/22/93 26/15/93
f 23/14/94 30/19/94 6/23/94
f 27/17/95 36/20/95 28/18/95
f 28/18/96 36/20/96 30/19/96
f 10/4/97 17/6/97 15/1/97
f 78/96/98 80/94/98 31/31/98
f 78/96/99 31/31/99 9/33/99
f 80/94/100 32/29/100 31/31/100
f 81/24/101 33/27/101 32/29/101
f 30/113/102 36/34/102 34/28/102
f 31/31/103 37/114/103 66/32/103
f 31/31/104 35/30/104 37/114/104
f 34/28/105 38/35/105 33/27/105
f 36/34/106 39/37/106 38/35/106
f 33/27/107 38/35/107 35/30/107
f 35/30/108 40/115/108 37/114/108
f 66/32/109 37/114/109 7/116/109
f 35/30/110 38/35/110 40/115/110
f 38/35/111 5/39/111 40/115/111
f 40/115/112 5/39/112 41/117/112
f 80/94/113 81/24/113 32/29/113
f 66/32/114 7/116/114 8/118/114
f 37/119/115 40/42/115 7/46/115
f 5/45/116 42/44/116 41/40/116
f 39/43/117 44/49/117 42/44/117
f 41/40/118 46/48/118 43/41/118
f 43/41/119 46/48/119 48/52/119
f 43/41/120 3/58/120 4/47/120
f 42/44/121 45/50/121 46/48/121
f 43/41/122 48/52/122 3/58/122
f 44/49/123 47/53/123 45/50/123
f 48/52/124 49/56/124 3/58/124
f 51/54/125 47/53/125 16/120/125
f 3/58/126 52/57/126 2/121/126
f 50/51/127 45/50/127 53/59/127
f 53/59/128 51/54/128 16/120/128
f 1/99/129 52/57/129 82/102/129
f 54/55/130 53/59/130 85/61/130
f 53/59/131 16/120/131 10/60/131
f 4/47/132 3/58/132 2/122/132
f 8/123/133 7/46/133 4/47/133
f 57/68/134 91/124/134 74/84/134
f 55/64/135 60/63/135 1/70/135
f 57/68/136 74/84/136 59/66/136
f 57/68/137 61/67/137 56/62/137
f 56/62/138 61/67/138 62/71/138
f 59/66/139 65/74/139 61/67/139
f 60/63/140 64/75/140 2/69/140
f 60/63/141 62/71/141 64/75/141
f 65/74/142 59/66/142 63/97/142
f 61/67/143 64/75/143 62/71/143
f 64/75/144 8/77/144 2/69/144
f 61/67/145 65/74/145 64/75/145
f 65/74/146 63/97/146 11/72/146
f 65/74/147 67/73/147 64/75/147
f 67/73/148 11/72/148 9/78/148
f 2/69/149 8/77/149 4/125/149
f 72/89/150 68/86/150 70/26/150
f 74/84/151 71/88/151 73/90/151
f 72/89/152 70/26/152 75/91/152
f 74/84/153 73/90/153 79/93/153
f 75/91/154 70/26/154 18/10/154
f 59/66/155 74/84/155 12/98/155
f 74/84/156 79/93/156 12/98/156
f 69/87/157 72/89/157 75/91/157
f 79/93/158 76/92/158 77/95/158
f 75/91/159 18/10/159 6/23/159
f 11/72/160 12/98/160 78/96/160
f 78/96/161 12/98/161 79/93/161
f 76/92/162 6/23/162 81/24/162
f 77/95/163 76/92/163 80/94/163
f 79/93/164 77/95/164 78/96/164
f 93/83/165 94/85/165 69/87/165
f 11/72/166 78/96/166 9/33/166
f 1/99/167 82/102/167 83/100/167
f 85/61/168 10/60/168 15/104/168
f 55/101/169 83/100/169 88/106/169
f 86/103/170 85/61/170 84/105/170
f 83/100/171 82/102/171 86/103/171
f 88/106/172 86/103/172 87/110/172
f 84/105/173 15/104/173 89/108/173
f 88/106/174 87/110/174 91/82/174
f 90/107/175 84/105/175 92/109/175
f 87/110/176 86/103/176 90/107/176
f 94/85/177 87/110/177 68/86/177
f 87/110/178 92/109/178 68/86/178
f 91/82/179 87/110/179 93/83/179
f 92/109/180 13/126/180 14/111/180
f 68/86/181 14/111/181 70/26/181
f 52/57/182 54/55/182 82/102/182
f 92/109/183 89/108/183 13/126/183
f 57/127/184 88/106/184 91/82/184
